<svg width="135" height="38" viewBox="0 0 135 38" fill="none" xmlns="http://www.w3.org/2000/svg">
<path fill-rule="evenodd" clip-rule="evenodd" d="M11.7368 6.62224C12.1563 6.83326 11.9318 7.46957 11.4727 7.37061L6.54205 6.30778C6.29292 6.25408 6.05776 6.44394 6.05776 6.6988V30.7257C6.05776 30.9692 6.27358 31.1563 6.51466 31.1216L12.1106 30.3175C12.5594 30.253 12.7523 30.867 12.3472 31.0707L0.579731 36.9893C0.313716 37.1231 0 36.9297 0 36.632V1.36805C0 1.07028 0.313717 0.876907 0.579731 1.0107L11.7368 6.62224ZM16.0084 7.28429C16.0084 6.94543 16.4034 6.76008 16.664 6.97664L20.4018 10.0824C20.4933 10.1584 20.5462 10.2711 20.5462 10.39V27.61C20.5462 27.7289 20.4933 27.8416 20.4018 27.9176L16.664 31.0233C16.4034 31.2399 16.0084 31.0546 16.0084 30.7157V7.28429ZM40.6039 28.4388C46.9125 28.4388 50.2369 24.7761 50.2369 19.1758C50.2369 13.1243 46.7031 9.85965 40.5254 9.85965H34.0336V28.4388H40.6039ZM37.4627 12.8058H40.3422C44.5566 12.8058 46.7292 15.168 46.7292 19.1758C46.7292 23.4755 44.2163 25.4927 40.3683 25.4927H37.4627V12.8058ZM57.7581 33.8533L64.4855 15.4865H61.1349L58.5434 23.8471C58.5217 23.9221 58.4992 23.9978 58.4764 24.0747L58.4763 24.0749L58.4763 24.075C58.3618 24.4609 58.2381 24.8776 58.1508 25.3865C58.0199 24.7761 57.889 24.2983 57.732 23.8471L55.0096 15.4865H51.4234L56.4231 28.3326L54.3552 33.8533H57.7581ZM69.4018 20.8479V28.4388H66.2083V15.4865H69.4018V16.0704C69.4018 16.442 69.3756 16.8401 69.2971 17.3444C70.0039 16.0439 71.208 15.0618 73.2236 15.0618C76.0506 15.0618 77.7259 17.079 77.7259 20.264V28.4388H74.5324V20.7417C74.5324 18.8307 73.6162 17.6364 72.1242 17.6364C70.5536 17.6364 69.4018 19.0431 69.4018 20.8479ZM84.5991 28.9166C86.798 28.9166 88.1068 27.9345 88.7874 26.6605C88.7088 27.0852 88.6565 27.4833 88.6565 27.908V28.4388H91.6144V20.8214C91.6144 17.1851 90.0438 15.0618 86.1435 15.0618C82.8453 15.0618 80.6726 16.9728 80.4632 19.6801H83.7615C83.8924 18.3264 84.8347 17.4771 86.3268 17.4771C87.688 17.4771 88.4209 18.2734 88.4209 19.1758C88.4209 19.8128 88.0544 20.1844 87.0074 20.3436L85.175 20.5825C82.4265 20.9541 80.2015 21.9626 80.2015 24.8822C80.2015 27.4302 82.3741 28.9166 84.5991 28.9166ZM85.463 26.5278C84.3374 26.5278 83.4473 25.8908 83.4473 24.7495C83.4473 23.5817 84.4682 23.0509 85.9603 22.7854L87.0074 22.5731C87.7927 22.4404 88.2377 22.2811 88.5256 22.0157V23.4224C88.5256 25.2538 87.1644 26.5278 85.463 26.5278ZM97.9046 20.901V28.4388H94.711V15.4865H97.9046V16.0704C97.9046 16.4685 97.8784 16.9197 97.7999 17.3444C98.4281 16.2031 99.606 15.0618 101.491 15.0618C103.088 15.0618 104.37 16.3093 104.841 17.4771C105.574 16.2296 107.119 15.0618 108.977 15.0618C111.569 15.0618 113.375 17.1321 113.375 20.2905V28.4388H110.181V20.7683C110.181 18.8838 109.448 17.6364 108.061 17.6364C106.674 17.6364 105.627 18.9369 105.627 20.901V28.4388H102.433V20.7683C102.433 18.8838 101.753 17.6364 100.313 17.6364C98.9255 17.6364 97.9046 18.8838 97.9046 20.901ZM116.412 13.5224H119.763V10.1251H116.412V13.5224ZM116.491 15.4865V28.4388H119.684V15.4865H116.491ZM135 23.5021C134.555 26.7932 132.461 28.9166 128.665 28.9166C124.608 28.9166 122.2 26.2624 122.2 21.9626C122.2 17.6364 125.105 15.0618 128.822 15.0618C132.539 15.0618 134.555 17.3444 134.869 20.3701H131.623C131.519 18.9104 130.629 17.6364 128.822 17.6364C126.964 17.6364 125.446 19.1758 125.446 21.9892C125.446 24.5637 126.781 26.3686 128.744 26.3686C130.681 26.3686 131.597 25.0415 131.754 23.5021H135Z" fill="white"/>
</svg>
