<svg width="369" height="76" viewBox="0 0 369 76" fill="none" xmlns="http://www.w3.org/2000/svg">
<path d="M124.886 63C113.039 63 106 56.2263 106 42.9581V13H113.387V41.9106C113.387 52.0363 117.36 56.7849 124.886 56.7849C132.413 56.7849 136.455 52.1061 136.455 41.9106V13H143.842V42.9581C143.842 56.2263 136.664 63 124.886 63Z" fill="white"/>
<path d="M152.37 13H159.269V61.8827H152.37V13Z" fill="white"/>
<path d="M184.857 31.1605H177.268V56.0178H184.857V61.8827H176.213C172.175 61.8827 170.156 59.905 170.156 55.9497V31.1605H163.555V25.1593H170.156V13.225H177.268V25.1593H184.857V31.1605Z" fill="white"/>
<path d="M197.997 61.8827H191.098V28.0838H197.997V29.9693C197.997 31.2961 197.997 32.6229 197.927 33.8799C199.6 30.0391 203.085 26.9665 208.242 26.9665C208.73 26.9665 209.287 26.9665 209.845 27.0363V33.8799C209.357 33.7402 208.73 33.6704 207.754 33.6704C201.761 33.6704 197.997 36.9525 197.997 44.4246V61.8827Z" fill="white"/>
<path d="M223.347 63C217.075 63 211.709 59.0894 211.709 52.595C211.709 45.6816 217.145 42.8184 223.626 41.8408L229.968 40.8631C232.616 40.4441 233.522 39.5363 233.522 37.6508C233.522 34.4385 231.014 32.2737 227.18 32.2737C222.511 32.2737 219.863 34.8575 219.654 38.7682H212.615C212.963 32.2737 218.121 26.9665 226.693 26.9665C235.822 26.9665 240.352 32.1341 240.352 40.5838V61.8827H233.801V60.2765C233.801 59.2989 233.871 58.3212 233.941 57.2737C232.268 60.6955 228.644 63 223.347 63ZM224.741 57.6927C229.759 57.6927 233.592 54.2011 233.592 48.9637V44.4944C233.035 45.1229 231.85 45.5419 229.759 45.9609L225.717 46.729C221.745 47.4972 218.817 49.1034 218.817 52.4553C218.817 55.8073 221.466 57.6927 224.741 57.6927Z" fill="white"/>
<path d="M256.493 61.8827H249.315V13H260.953L274.752 49.5223C275.449 51.2682 276.006 52.8743 276.564 54.4804C277.122 52.8045 277.609 51.2682 278.306 49.5223L291.826 13H303.326V61.8827H296.078V26.6173C296.078 24.3827 296.078 22.2877 296.147 20.1927L280.745 61.8827H272.173L256.423 20.1927C256.493 22.2877 256.493 24.4525 256.493 26.6173V61.8827Z" fill="white"/>
<path d="M321.966 63C315.694 63 310.328 59.0894 310.328 52.595C310.328 45.6816 315.764 42.8184 322.245 41.8408L328.587 40.8631C331.235 40.4441 332.141 39.5363 332.141 37.6508C332.141 34.4385 329.632 32.2737 325.799 32.2737C321.13 32.2737 318.482 34.8575 318.273 38.7682H311.234C311.582 32.2737 316.74 26.9665 325.312 26.9665C334.441 26.9665 338.971 32.1341 338.971 40.5838V61.8827H332.42V60.2765C332.42 59.2989 332.49 58.3212 332.56 57.2737C330.887 60.6955 327.263 63 321.966 63ZM323.36 57.6927C328.378 57.6927 332.211 54.2011 332.211 48.9637V44.4944C331.654 45.1229 330.469 45.5419 328.378 45.9609L324.336 46.729C320.363 47.4972 317.436 49.1034 317.436 52.4553C317.436 55.8073 320.085 57.6927 323.36 57.6927Z" fill="white"/>
<path d="M346.47 22.148V14.3268H354.136V22.148H346.47ZM346.888 28.0838H353.788V61.8827H346.888V28.0838Z" fill="white"/>
<path d="M362.101 13H369V61.8827H362.101V13Z" fill="white"/>
<path fill-rule="evenodd" clip-rule="evenodd" d="M33.3085 1.26858L3.89876 19.6966C1.47298 21.2166 0 23.8778 0 26.7404V48.302C0 51.094 1.40163 53.6994 3.73133 55.2381L33.1424 74.6631C34.2962 75.4252 35.593 75.8709 36.9142 76L32.0625 49.2239L4.75 31.9124L59.0763 11.709L42.0836 1.23607C39.3907 -0.423665 35.9891 -0.411066 33.3085 1.26858ZM67.0528 16.6252L40.9318 75.3957C41.3868 75.2053 41.8288 74.9726 42.2521 74.6976L72.216 55.2319C74.576 53.6988 76 51.0756 76 48.2614V26.7807C76 23.8962 74.5046 21.2178 72.0489 19.7044L67.0528 16.6252Z" fill="white"/>
</svg>
