<svg width="24" height="24" viewBox="0 0 24 24" fill="none" xmlns="http://www.w3.org/2000/svg">
<g clip-path="url(#clip0_4_54)">
<path d="M21.264 4.2197C20.4877 4.56397 19.6534 4.79654 18.7778 4.90116C19.6715 4.36558 20.358 3.51748 20.6811 2.50685C19.8447 3.00288 18.9183 3.36296 17.9322 3.55703C17.1427 2.71589 16.0177 2.19043 14.7727 2.19043C12.3822 2.19043 10.4439 4.12805 10.4439 6.51804C10.4439 6.85723 10.4822 7.18756 10.5561 7.50431C6.95843 7.32385 3.76892 5.60086 1.63391 2.98252C1.26131 3.62168 1.04778 4.36505 1.04778 5.1582C1.04778 6.65969 1.81199 7.98431 2.97348 8.76036C2.26393 8.73794 1.59646 8.54323 1.01287 8.2191C1.01237 8.2371 1.01237 8.2553 1.01237 8.2735C1.01237 10.3703 2.50449 12.1194 4.48473 12.5171C4.12151 12.6161 3.7391 12.6689 3.34434 12.6689C3.06541 12.6689 2.79429 12.6418 2.52992 12.5913C3.08081 14.3106 4.67937 15.5619 6.57364 15.5967C5.09217 16.7574 3.22576 17.4494 1.19762 17.4494C0.848222 17.4494 0.503678 17.4288 0.165039 17.3888C2.08072 18.6168 4.35603 19.3333 6.80058 19.3333C14.7626 19.3333 19.1166 12.7389 19.1166 7.01976C19.1166 6.83211 19.1124 6.64556 19.1041 6.45982C19.9498 5.84977 20.6836 5.08763 21.264 4.2197Z" fill="#8A8893"/>
</g>
<defs>
<clipPath id="clip0_4_54">
<rect width="23.2727" height="24" fill="white" transform="translate(0.165039)"/>
</clipPath>
</defs>
</svg>
